General                          : ChattChitto RG - Movies [R2L]
===========
Complete name                    : Futurama The Beast with a Billion Backs 2008 720p HDTVRip H264 [ChattChitto RG]
Format                           : MPEG-4
Format profile                   : Base Media
Codec ID                         : isom
File size                        : 1.44 GiB
Duration                         : 1h 25mn
Overall bit rate                 : 2 418 Kbps
Encoded date                     : UTC 2011-01-20 17:40:43

Video
===========
ID                               : 1
Format                           : AVC
Format/Info                      : Advanced Video Codec
Format profile                   : High@L4.0
Format settings, CABAC           : Yes
Format settings, ReFrames        : 4 frames
Codec ID                         : avc1
Codec ID/Info                    : Advanced Video Coding
Duration                         : 1h 25mn
Bit rate mode                    : Variable
Bit rate                         : 2 100 Kbps
Maximum bit rate                 : 33.8 Mbps
Width                            : 1 280 pixels
Height                           : 720 pixels
Display aspect ratio             : 16:9
Frame rate mode                  : Constant
Frame rate                       : 25.000 fps
Resolution                       : 24 bits
Colorimetry                      : 4:2:0
Scan type                        : Progressive
Bits/(Pixel*Frame)               : 0.091
Stream size                      : 1.25 GiB (87%)
Writing library                  : x264 core 84 r1400M 20fa784
Encoded date                     : UTC 2011-01-20 09:23:02

Audio
==========
ID                               : 2
Format                           : AAC
Format/Info                      : Advanced Audio Codec
Format version                   : Version 4
Format profile                   : LC
Format settings, SBR             : No
Codec ID                         : 40
Duration                         : 1h 25mn
Bit rate mode                    : Variable
Bit rate                         : 315 Kbps
Maximum bit rate                 : 461 Kbps
Channel(s)                       : 6 channels
Channel positions                : Front: L C R, Rear: L R, LFE
Sampling rate                    : 48.0 KHz
Resolution                       : 16 bits
Stream size                      : 191 MiB (13%)
Encoded date                     : UTC 2011-01-20 17:41:30

Subtitles                        : English | Swedish


----------------------------------------------------
IMDB Link: http://www.imdb.com/title/tt1054485/
----------------------------------------------------



Screen Shots:
==============    
http://chattchitto.net/chattchittorg/movies/hdtvrip/2011/beast_with_billion_backs/1.png 
http://chattchitto.net/chattchittorg/movies/hdtvrip/2011/beast_with_billion_backs/2.png 
http://chattchitto.net/chattchittorg/movies/hdtvrip/2011/beast_with_billion_backs/3.png 
http://chattchitto.net/chattchittorg/movies/hdtvrip/2011/beast_with_billion_backs/4.png 
http://chattchitto.net/chattchittorg/movies/hdtvrip/2011/beast_with_billion_backs/5.png 
http://chattchitto.net/chattchittorg/movies/hdtvrip/2011/beast_with_billion_backs/6.png 
http://chattchitto.net/chattchittorg/movies/hdtvrip/2011/beast_with_billion_backs/7.png



ScreenShots Comparison:
=========================  
http://screenshotcomparison.com/comparison/21663



Plot:
======
The Planet Express crew must work to fix rips between their universe and another inhabited by a planet-sized, tentacle alien which soon takes over the Earth and uses it's ability to control Fry to command an entire religion which takes over and convinces the inhabitants of Earth to abandon the Earth to live in a pseudo-heaven, leaving the robots of the world to inherit the planet.



Release Info:
==============
original name .... : Futurama The Beast with a Billion Backs 2008 720p HDTVRip H264 [ChattChitto RG]
ripper.............: DON
encoder............: Recalled2Life (R2L)
video codec........: H264/.MP4
video bitrate......: 2100 Kbps
audio codec........: AAC-LC
aspect ratio.......: 1.78:1
resolution.........: 1280 x 720
genre..............: Animation | Action | Comedy
runtime............: 1h 25mn
language...........: English
rating.............: Not Rated
subtitles..........: English | Swedish
sample.............: Yes [16.4 MB]
2ch Audio..........: 2ch Audio for XBox Viewers
Compatibility .....: XBox | PS3 | WD Live



Source:
========
Futurama.The.Beast.with.a.Billion.Backs.2008.720p.HDTV.x264-DON  THANKS!



Notes:
=======
ChattChitto RG Encourages Burning this Film with ConvertXtoDVD and Playing with VLC media player.
XBox 360 | PS3 | WD Live - Compatible 
Enhanced for your viewing pleasure ;)